# xmcd
#
# Track frame offsets:
#	150
#	17828
#	35816
#	67754
#	106429
#	145432
#	168717
#	191716
#
# Disc length: 2875 seconds
#
# Revision: 1
# Processed by: cddbd v1.5.1PL0 Copyright (c) Steve Scherf et al.
# Submitted via: EasyCDDAExtractor 8.0.2.1
#
DISCID=740b3908
DTITLE=Ozzy Osbourne - HiFi Buys Amphitheatre Atlanta 28-07-02 Disc 2
DYEAR=2002
DGENRE=Hard Rock
TTITLE0=Iron Man
TTITLE1=I Don't Want to Change The Workd
TTITLE2=Road To Nowhere
TTITLE3=No More Tears
TTITLE4=Crazy Train
TTITLE5=Mama I'm Coming Home
TTITLE6=Bark At The Moon
TTITLE7=Paranoid
EXTD=
EXTT0=
EXTT1=
EXTT2=
EXTT3=
EXTT4=
EXTT5=
EXTT6=
EXTT7=
PLAYORDER=
